<?xml version="1.0" encoding="iso-8859-1"?>
<!-- Generator: Adobe Illustrator 19.0.0, SVG Export Plug-In . SVG Version: 6.00 Build 0)  -->
<svg version="1.1" id="Capa_1" xmlns="http://www.w3.org/2000/svg" xmlns:xlink="http://www.w3.org/1999/xlink" x="0px" y="0px"
	 viewBox="0 0 512 512" style="enable-background:new 0 0 512 512;" xml:space="preserve">
<g>
	<path style="fill:#35495E;" d="M52.966,70.621h406.069c9.751,0,17.655,7.904,17.655,17.655v317.793H35.31V88.276
		C35.31,78.525,43.215,70.621,52.966,70.621z"/>
	<path style="fill:#95A5A5;" d="M0,388.414h512v26.483c0,14.626-11.857,26.483-26.483,26.483H26.483
		C11.857,441.379,0,429.523,0,414.897V388.414z"/>
	<path style="fill:#BDC3C7;" d="M326.621,388.414v8.828c-0.029,9.739-7.916,17.627-17.655,17.655H203.034
		c-9.739-0.029-17.627-7.916-17.655-17.655v-8.828"/>
	<path style="fill:#4482C3;" d="M370.759,229.517c0.005-19.662-5.078-38.992-14.754-56.108c-0.323-0.759-0.754-1.467-1.279-2.103
		c-20.546-35.029-58.116-56.548-98.727-56.547c-40.61,0.001-78.179,21.52-98.725,56.55c-0.524,0.635-0.954,1.342-1.277,2.099
		c-19.674,34.819-19.674,77.399,0,112.219c0.323,0.757,0.753,1.464,1.277,2.099c20.545,35.03,58.115,56.55,98.725,56.55
		s78.18-21.518,98.727-56.547c0.525-0.636,0.956-1.344,1.279-2.103C365.681,268.509,370.764,249.18,370.759,229.517z
		 M169.616,185.379h21.021c-2.833,11.575-4.506,23.404-4.993,35.31h-26.3C160.466,208.369,163.954,196.38,169.616,185.379z
		 M352.656,220.69h-26.301c-0.487-11.907-2.159-23.735-4.991-35.31h21.019C348.046,196.38,351.534,208.369,352.656,220.69z
		 M308.714,220.69h-43.886v-35.31h38.092C306.179,196.893,308.123,208.738,308.714,220.69z M264.828,167.724v-33.786
		c14.704,6.491,26.131,18.689,31.649,33.786H264.828z M247.172,133.939v33.786h-31.649
		C221.041,152.628,232.468,140.429,247.172,133.939z M247.172,185.379v35.31h-43.886c0.59-11.951,2.534-23.797,5.794-35.31H247.172z
		 M159.344,238.345h26.3c0.487,11.907,2.16,23.735,4.992,35.31h-21.02C163.954,262.655,160.466,250.666,159.344,238.345z
		 M203.287,238.345h43.886v35.31h-38.092C205.821,262.142,203.877,250.296,203.287,238.345z M247.172,291.31v33.786
		c-14.704-6.491-26.131-18.689-31.649-33.786H247.172z M264.828,325.096V291.31h31.649
		C290.959,306.407,279.532,318.605,264.828,325.096z M264.828,273.655v-35.31h43.886c-0.59,11.951-2.534,23.797-5.794,35.31H264.828
		z M326.356,238.345h26.301c-1.122,12.321-4.61,24.31-10.273,35.31h-21.019C324.197,262.08,325.869,250.251,326.356,238.345z
		 M330.845,167.724h-15.093c-2.968-7.789-6.754-15.24-11.295-22.23C314.502,151.281,323.437,158.808,330.845,167.724z
		 M207.543,145.495c-4.541,6.989-8.328,14.441-11.295,22.23h-15.093C188.563,158.808,197.498,151.281,207.543,145.495z
		 M181.155,291.31h15.093c2.968,7.789,6.754,15.24,11.295,22.23C197.498,307.753,188.563,300.226,181.155,291.31z M304.457,313.54
		c4.541-6.989,8.328-14.441,11.295-22.23h15.093C323.437,300.226,314.502,307.753,304.457,313.54z"/>
	<g>
		<path style="fill:#8697CB;" d="M129.328,161.022c-3.702-3.164-9.266-2.736-12.44,0.957l-52.966,61.793
			c-2.836,3.305-2.836,8.186,0,11.491l52.966,61.793c3.173,3.699,8.745,4.126,12.444,0.953c3.699-3.173,4.126-8.745,0.953-12.444
			L82.25,229.517l48.035-56.047c1.527-1.776,2.284-4.087,2.105-6.423C132.21,164.712,131.108,162.544,129.328,161.022z"/>
		<path style="fill:#8697CB;" d="M448.078,223.772l-52.966-61.793c-2.053-2.393-5.226-3.509-8.325-2.928
			c-3.099,0.581-5.652,2.771-6.698,5.746c-1.046,2.974-0.426,6.281,1.627,8.674l48.035,56.047l-48.035,56.047
			c-2.053,2.393-2.673,5.699-1.627,8.674c1.046,2.974,3.599,5.165,6.698,5.746c3.099,0.581,6.272-0.535,8.325-2.928l52.966-61.793
			C450.914,231.957,450.914,227.077,448.078,223.772z"/>
	</g>
</g>
<g>
</g>
<g>
</g>
<g>
</g>
<g>
</g>
<g>
</g>
<g>
</g>
<g>
</g>
<g>
</g>
<g>
</g>
<g>
</g>
<g>
</g>
<g>
</g>
<g>
</g>
<g>
</g>
<g>
</g>
</svg>
